
<svg aria-hidden="true" style="position: absolute; width: 0; height: 0; overflow: hidden;" version="1.1" xmlns="http://www.w3.org/2000/svg" xmlns:xlink="http://www.w3.org/1999/xlink">
        <defs>
    <symbol id="icon-wemyssweb" viewBox="0 0 38 32">
        <title>wemyssweb</title>
        <path d="M37.821 19.32v-6.595l-12.713-12.63v9.050c2.229 2.361 4.591 4.59 6.92 6.852l-6.92 6.902c-1.487-2.372-2.821-4.834-4.248-7.242h-3.891l-4.277 7.355c-2.257-2.397-4.641-4.67-6.95-7.015l6.95-6.902v-8.999l-12.683 12.68v6.545l12.683 12.68 6.208-10.849 6.208 10.849z"></path>
    </symbol>
    <symbol id="icon-printer" viewBox="0 0 32 32">
        <title>printer</title>
        <path d="M8 2h16v4h-16v-4z"></path>
        <path d="M30 8h-28c-1.1 0-2 0.9-2 2v10c0 1.1 0.9 2 2 2h6v8h16v-8h6c1.1 0 2-0.9 2-2v-10c0-1.1-0.9-2-2-2zM4 14c-1.105 0-2-0.895-2-2s0.895-2 2-2 2 0.895 2 2-0.895 2-2 2zM22 28h-12v-10h12v10z"></path>
    </symbol>
    <symbol id="icon-menu" viewBox="0 0 32 32">
        <title>menu</title>
        <path d="M2 6h28v6h-28zM2 14h28v6h-28zM2 22h28v6h-28z"></path>
    </symbol>
    <symbol id="icon-mail2" viewBox="0 0 32 32">
        <title>mail2</title>
        <path d="M26.667 0h-21.333c-2.934 0-5.334 2.4-5.334 5.334v21.332c0 2.936 2.4 5.334 5.334 5.334h21.333c2.934 0 5.333-2.398 5.333-5.334v-21.332c0-2.934-2.399-5.334-5.333-5.334zM26.667 4c0.25 0 0.486 0.073 0.688 0.198l-11.355 9.388-11.355-9.387c0.202-0.125 0.439-0.198 0.689-0.198h21.333zM5.334 28c-0.060 0-0.119-0.005-0.178-0.013l7.051-9.78-0.914-0.914-7.293 7.293v-19.098l12 14.512 12-14.512v19.098l-7.293-7.293-0.914 0.914 7.051 9.78c-0.058 0.008-0.117 0.013-0.177 0.013h-21.333z"></path>
    </symbol>    
    </defs>
    </svg>    