<?xml version="1.0" standalone="no"?>
<!DOCTYPE svg PUBLIC "-//W3C//DTD SVG 20010904//EN"
 "http://www.w3.org/TR/2001/REC-SVG-20010904/DTD/svg10.dtd">
<svg version="1.0" xmlns="http://www.w3.org/2000/svg"
 width="700.000000pt" height="700.000000pt" viewBox="0 0 700.000000 700.000000"
 preserveAspectRatio="xMidYMid meet">
<metadata>
Created by potrace 1.11, written by Peter Selinger 2001-2013
</metadata>
<g transform="translate(0.000000,700.000000) scale(0.100000,-0.100000)"
fill="#000000" stroke="none">
<path d="M1875 5353 c-352 -356 -787 -797 -967 -979 l-328 -331 0 -502 0 -501
966 -977 c532 -538 970 -979 973 -981 4 -1 216 367 471 819 256 452 469 827
475 835 7 10 128 -196 480 -821 259 -459 472 -834 475 -835 6 0 193 188 1268
1274 l672 678 0 514 0 514 -970 972 -969 973 -1 -703 0 -704 526 -524 527
-524 -201 -207 c-286 -296 -850 -858 -856 -852 -12 12 -226 379 -424 726
l-217 382 -300 1 -300 0 -318 -553 c-174 -303 -321 -558 -326 -566 -7 -10 -40
19 -137 120 -71 74 -307 314 -526 535 -219 221 -398 406 -398 413 0 6 236 249
525 540 l525 528 -2 692 -3 692 -640 -648z"/>
</g>
</svg>
