<svg aria-hidden="true" style="position:absolute;width:0;height:0" xmlns="http://www.w3.org/2000/svg" overflow="hidden"><defs><symbol id="icon-wemyssweb" viewBox="0 0 38 32"><path d="M37.821 19.32v-6.595L25.108.095v9.05c2.229 2.361 4.591 4.59 6.92 6.852l-6.92 6.902c-1.487-2.372-2.821-4.834-4.248-7.242h-3.891l-4.277 7.355c-2.257-2.397-4.641-4.67-6.95-7.015l6.95-6.902V.096L.009 12.776v6.545l12.683 12.68L18.9 21.152l6.208 10.849z"/></symbol><symbol id="icon-printer" viewBox="0 0 32 32"><path d="M8 2h16v4H8V2zm22 6H2c-1.1 0-2 .9-2 2v10c0 1.1.9 2 2 2h6v8h16v-8h6c1.1 0 2-.9 2-2V10c0-1.1-.9-2-2-2zM4 14a2 2 0 11-.001-3.999A2 2 0 014 14zm18 14H10V18h12v10z"/></symbol><symbol id="icon-menu" viewBox="0 0 32 32"><path d="M2 6h28v6H2zm0 8h28v6H2zm0 8h28v6H2z"/></symbol><symbol id="icon-mail2" viewBox="0 0 32 32"><path d="M26.667 0H5.334C2.4 0 0 2.4 0 5.334v21.332C0 29.602 2.4 32 5.334 32h21.333C29.601 32 32 29.602 32 26.666V5.334C32 2.4 29.601 0 26.667 0zm0 4c.25 0 .486.073.688.198L16 13.586 4.645 4.199c.202-.125.439-.198.689-.198h21.333zM5.334 28a1.32 1.32 0 01-.178-.013l7.051-9.78-.914-.914L4 24.586V5.488L16 20 28 5.488v19.098l-7.293-7.293-.914.914 7.051 9.78a1.294 1.294 0 01-.177.013H5.334z"/></symbol></defs></svg>